<svg width="15" height="14" viewBox="0 0 15 14" fill="none" xmlns="http://www.w3.org/2000/svg">
<path d="M6.24612 0.0392407L11.3247 2.97018L10.9219 3.3934L6.10134 0.610951L0.569854 3.80548V10.1964C2.41306 11.26 4.25813 12.3254 6.10134 13.389L11.6347 10.1945V5.54103L6.9719 10.6957L3.55092 5.98466L6.9719 7.85571L14.9127 1.91772L12.2027 4.91363V10.3579C12.2027 10.4711 12.1377 10.5676 12.043 10.614L6.24427 13.9626C6.15145 14.0146 6.04194 14.0109 5.95655 13.9608C4.01868 12.8415 2.08266 11.7222 0.144784 10.6029C0.0538299 10.5509 0.0018562 10.4562 0.0018562 10.3579L0 3.64213C0 3.5289 0.0668233 3.43238 0.16149 3.38597L5.96027 0.0373845C6.05122 -0.0145891 6.16074 -0.0108767 6.24612 0.0392407Z" fill="white"/>
</svg>
