<svg width="32" height="34" viewBox="0 0 32 34" fill="none" xmlns="http://www.w3.org/2000/svg">
<path d="M15 24.0833C12.6568 24.0833 10.75 22.1764 10.75 19.8333C10.75 17.4901 12.6568 15.5833 15 15.5833C17.3432 15.5833 19.25 17.4901 19.25 19.8333C19.25 22.1764 17.3432 24.0833 15 24.0833Z" fill="#6D33FA"/>
<path d="M23.4869 25.0892C23.0959 25.0892 22.7063 24.9277 22.4258 24.6132C21.9059 24.0281 21.9598 23.1327 22.5448 22.6128C24.9532 20.4779 26.333 17.3995 26.333 14.1667C26.333 7.91775 21.2486 2.83333 14.9997 2.83333C8.75076 2.83333 3.66634 7.91775 3.66634 14.1667C3.66634 17.3995 5.04617 20.4779 7.45309 22.6128C8.03817 23.1313 8.09201 24.0281 7.57209 24.6132C7.05359 25.1982 6.15826 25.2535 5.57176 24.7322C2.56134 22.0603 0.833008 18.2098 0.833008 14.1667C0.833008 6.35517 7.18817 0 14.9997 0C22.8112 0 29.1663 6.35517 29.1663 14.1667C29.1663 18.2098 27.438 22.0603 24.4262 24.7322C24.1556 24.9716 23.8213 25.0892 23.4869 25.0892Z" fill="#FF5153"/>
<path d="M20.622 14.8891C19.9151 14.8891 19.3045 14.3621 19.2181 13.6438C18.9588 11.5188 17.1469 9.91659 14.9992 9.91659C12.8516 9.91659 11.0397 11.5188 10.7804 13.6424C10.6869 14.4202 9.97716 14.9642 9.20366 14.8778C8.42732 14.7843 7.87482 14.0773 7.96832 13.301C8.39899 9.7565 11.4207 7.08325 14.9992 7.08325C18.5777 7.08325 21.5995 9.7565 22.0302 13.301C22.1237 14.0773 21.5712 14.7843 20.7948 14.8778C20.7367 14.8848 20.6787 14.8891 20.622 14.8891Z" fill="#FF5153"/>
<path d="M22.4375 34.0001H7.5625C6.976 34.0001 6.5 33.5241 6.5 32.9376V30.8126C6.5 28.6635 8.24675 26.9167 10.3958 26.9167H19.6042C21.7532 26.9167 23.5 28.6635 23.5 30.8126V32.9376C23.5 33.5241 23.024 34.0001 22.4375 34.0001Z" fill="#6D33FA"/>
</svg>
