<svg width="32" height="34" viewBox="0 0 32 34" fill="none" xmlns="http://www.w3.org/2000/svg">
<path d="M22.4052 14.6094C22.4052 13.8759 21.8106 13.2812 21.0771 13.2812H7.3974C6.66388 13.2812 6.06927 13.8759 6.06927 14.6094C6.06927 15.3429 6.66388 15.9375 7.3974 15.9375H21.0771C21.8106 15.9375 22.4052 15.3429 22.4052 14.6094Z" fill="#6D33FA"/>
<path d="M7.3974 18.5938C6.66388 18.5938 6.06927 19.1884 6.06927 19.9219C6.06927 20.6554 6.66388 21.25 7.3974 21.25H15.7055C16.4391 21.25 17.0337 20.6554 17.0337 19.9219C17.0337 19.1884 16.4391 18.5938 15.7055 18.5938H7.3974Z" fill="#6D33FA"/>
<path d="M10.5187 31.3438H6.07684C4.61219 31.3438 3.42059 30.1522 3.42059 28.6875V5.3125C3.42059 3.84784 4.61219 2.65625 6.07684 2.65625H22.4054C23.8701 2.65625 25.0617 3.84784 25.0617 5.3125V13.4805C25.0617 14.214 25.6563 14.8086 26.3898 14.8086C27.1233 14.8086 27.7179 14.214 27.7179 13.4805V5.3125C27.7179 2.38319 25.3347 0 22.4054 0H6.07684C3.14753 0 0.764343 2.38319 0.764343 5.3125V28.6875C0.764343 31.6168 3.14753 34 6.07684 34H10.5187C11.2522 34 11.8468 33.4054 11.8468 32.6719C11.8468 31.9384 11.2522 31.3438 10.5187 31.3438Z" fill="#6D33FA"/>
<path d="M30.0706 19.2293C28.5171 17.6757 25.9894 17.6757 24.4369 19.2282L17.1453 26.5037C16.9904 26.6582 16.8762 26.8485 16.8126 27.0578L15.2246 32.2856C15.0838 32.7492 15.2065 33.2525 15.5448 33.5992C15.7982 33.8589 16.1424 33.9999 16.4955 33.9999C16.6136 33.9999 16.7329 33.984 16.85 33.9516L22.2106 32.4667C22.4312 32.4056 22.6323 32.2885 22.7943 32.1267L30.0707 24.8641C31.6242 23.3106 31.6242 20.7829 30.0706 19.2293ZM21.165 30.0001L18.4681 30.7471L19.2573 28.1487L24.1773 23.2397L26.0559 25.1183L21.165 30.0001ZM28.1934 22.9851L27.936 23.2418L26.0577 21.3635L26.3142 21.1076C26.832 20.5898 27.6746 20.5898 28.1924 21.1076C28.7103 21.6255 28.7103 22.468 28.1934 22.9851Z" fill="#FF5153"/>
<path d="M21.0771 7.96875H7.3974C6.66388 7.96875 6.06927 8.56335 6.06927 9.29688C6.06927 10.0304 6.66388 10.625 7.3974 10.625H21.0771C21.8106 10.625 22.4052 10.0304 22.4052 9.29688C22.4052 8.56335 21.8106 7.96875 21.0771 7.96875Z" fill="#6D33FA"/>
</svg>
